<?xml version="1.0" encoding="utf-8"?>
<!-- Generator: Adobe Illustrator 22.0.0, SVG Export Plug-In . SVG Version: 6.00 Build 0)  -->
<svg version="1.1" id="Plus_size" xmlns="http://www.w3.org/2000/svg" xmlns:xlink="http://www.w3.org/1999/xlink" x="0px" y="0px"
     viewBox="0 0 155.5 80" style="enable-background:new 0 0 155.5 80;" xml:space="preserve">
<style type="text/css">
	.st0{fill:#000000;}
</style>
    <g>
	<g>
		<g>
			<path class="st0" d="M0,16.3h9.4l7.3,28.4h0.1V16.3h6.6v47.5h-7.7L6.8,29.1H6.7v34.7H0L0,16.3L0,16.3z"/>
            <path class="st0" d="M32.3,16.3h20.3v6.8H39.8v12.6H50v6.8H39.8v14.6h12.9v6.8H32.3V16.3z"/>
            <path class="st0" d="M58.6,16.3h7.2l3.3,36.5h0.1l3.5-36.5h8.1l3.5,36.5h0.1l3.3-36.5h6.4l-4.8,47.5h-9.3l-3.4-32h-0.1l-3.4,32
				h-9.9L58.6,16.3z"/>
            <path class="st0" d="M115.7,16.3h7.5v47.5h-7.5V16.3z"/>
            <path class="st0" d="M132.1,16.3h9.4l7.3,28.4h0.1V16.3h6.6v47.5h-7.7l-8.9-34.7h-0.1v34.7h-6.6L132.1,16.3L132.1,16.3z"/>
		</g>
	</g>
</g>
</svg>
